<?xml version="1.0" encoding="utf-8"?>
<!-- Generator: Adobe Illustrator 24.0.1, SVG Export Plug-In . SVG Version: 6.00 Build 0)  -->
<svg version="1.1" id="圖層_1" xmlns="http://www.w3.org/2000/svg" xmlns:xlink="http://www.w3.org/1999/xlink" x="0px" y="0px"
	 viewBox="0 0 106 30" style="enable-background:new 0 0 106 30;" xml:space="preserve">
<style type="text/css">
	.st0{fill:#FFFFFF;}
	.st1{fill:#FCB400;}
</style>
<g>
	<g>
		<path class="st0" d="M44,24.5c-0.3,0-0.8-0.1-1.5-0.1c-0.6,0-1.4,0-2.5,0c-1.6,0-3.4,0.1-5.3,0.3c-1.7,0.2-3.1,0.4-4.4,0.7
			c-0.2,0-0.3,0-0.4,0c-0.1,0-0.2,0-0.3-0.1c-0.1-0.1-0.1-0.2-0.1-0.4c0-0.2,0.1-0.4,0.4-0.5c0.6-0.2,1.3-0.3,2.1-0.4
			c-0.2-0.3-0.3-0.6-0.4-1c0-0.4-0.1-0.7-0.2-0.9c-0.1-0.5-0.2-0.9-0.4-1.4c-0.2-0.5-0.3-0.9-0.3-1c0-0.3,0.1-0.4,0.4-0.4h0.2
			c0.1,0,0.2,0.1,0.3,0.3c0.1,0.2,0.2,0.4,0.2,0.7c0.2-0.1,0.4-0.1,0.6-0.2c1.9-0.6,3.9-1,6-1.2c0.6,0,1.2-0.1,1.8-0.1h0.7
			c1.1,0.1,1.7,0.6,1.7,1.6c-0.1,1.3-0.5,2.3-1.3,3.2c1,0,1.8,0.1,2.5,0.2c0.3,0,0.4,0.2,0.4,0.4C44.4,24.2,44.3,24.4,44,24.5z
			 M33.5,8.7c-0.2,0-0.3-0.1-0.3-0.2c-0.1-0.2-0.1-0.5-0.1-1c0,0,0-0.1,0-0.1c-0.1,0-0.2,0-0.3,0c-0.8,0.1-1.5,0.1-2.2,0.1H30
			c-0.2,0-0.3-0.2-0.3-0.4V7c0-0.1,0.2-0.3,0.4-0.4c0.1,0,0.2,0,0.3,0c0.9,0,1.8,0,2.7-0.1c0-0.1,0-0.1,0-0.1c0-0.2-0.1-0.4-0.2-0.6
			c-0.1-0.1-0.2-0.2-0.3-0.3c-0.1-0.1-0.1-0.2-0.1-0.3s0.1-0.2,0.2-0.3c0.1-0.1,0.2-0.1,0.4-0.1c0.1,0,0.2,0.1,0.3,0.2
			c0.2,0.1,0.3,0.3,0.4,0.5c0.1,0.2,0.2,0.4,0.2,0.7c0,0.1,0,0.2,0,0.3c0.5,0,0.9-0.1,1.4-0.1c0.9-0.1,1.9-0.2,2.8-0.3
			c0-0.2-0.1-0.3-0.2-0.5c-0.1-0.2-0.1-0.3-0.1-0.4c0-0.2,0-0.4,0.1-0.5c0.1,0,0.2-0.1,0.3-0.1c0.1,0,0.2,0,0.3,0.1
			C38.8,4.9,38.9,5,39,5.2c0.1,0.2,0.2,0.5,0.2,0.8c0.8-0.1,1.6-0.2,2.5-0.4c0.3-0.1,0.6-0.1,0.8-0.1c0.1,0,0.2,0,0.3,0.1
			c0.1,0.1,0.2,0.2,0.2,0.2c0,0.1,0,0.2-0.1,0.3c-0.1,0.1-0.2,0.2-0.3,0.2c-1,0.2-2.2,0.4-3.4,0.5c0,0.2-0.1,0.5-0.2,0.7
			c-0.1,0.3-0.2,0.5-0.4,0.7c-0.1,0.1-0.2,0.2-0.3,0.3c-0.1,0.1-0.2,0.2-0.4,0.2c-0.2,0-0.3-0.1-0.3-0.3c0-0.1,0.1-0.2,0.2-0.3
			c0.2-0.2,0.3-0.5,0.4-0.7c0-0.2,0.1-0.3,0.1-0.4c-0.1,0-0.2,0-0.2,0c-1.3,0.2-2.7,0.3-4.1,0.5c0,0.5,0,0.8-0.1,1
			C33.9,8.6,33.8,8.7,33.5,8.7z M36.7,13.4c-0.2,0.3-0.5,0.6-0.8,1c0,0-0.1,0.1-0.1,0.1c0,0,0.1,0.1,0.1,0.1c0,0,0.1,0.1,0.1,0.1
			c0,0.1,0,0.1-0.1,0.2c-0.5,0.1-1,0.3-1.6,0.4v0.5c0,0.4-0.1,0.8-0.2,1.2c-0.1,0.2-0.1,0.4-0.2,0.5c0.3-0.1,0.5-0.1,0.7-0.2
			c0.9-0.2,1.7-0.4,2.2-0.5c0.1-0.1,0.2-0.1,0.3-0.1c0.2,0,0.3,0.1,0.3,0.3c0,0.1-0.1,0.3-0.2,0.4c-0.8,0.3-1.8,0.6-2.9,0.8
			c-1.1,0.2-2.1,0.3-3,0.3c-0.2,0-0.4,0-0.6-0.1c-0.2-0.1-0.3-0.3-0.3-0.6c0-0.5,0.1-1.2,0.2-2.3c0.1-1,0.2-1.8,0.3-2.5
			c0-0.4,0-0.8,0.1-1.2c0-0.4,0-0.7,0-1c-0.2,0-0.3,0.1-0.4,0.1C30.2,11,30,11,30,11c-0.1,0-0.2,0-0.2-0.1c-0.1-0.1-0.1-0.1-0.1-0.2
			c0,0,0-0.1,0-0.2c0-0.1,0-0.1,0.2-0.2c0.3-0.2,0.8-0.3,1.5-0.4c0.6-0.1,1.3-0.2,2.3-0.5c0.6-0.1,1.3-0.2,2.1-0.4
			c0.4-0.1,0.6-0.1,0.7-0.2c0.1,0,0.1,0,0.2,0c0.1,0.1,0.1,0.1,0.1,0.2c0,0.1-0.1,0.2-0.1,0.3c-0.3,0.3-1,0.5-2,0.8v0.8
			c0,0.4-0.1,0.7-0.2,1.1c-0.1,0.2-0.2,0.4-0.2,0.5c1-0.2,1.7-0.3,2.3-0.3c0.2,0,0.3,0.1,0.5,0.1c0.1,0.1,0.1,0.2,0.1,0.2
			C37,12.8,36.9,13.1,36.7,13.4z M33,17.3c0.2-0.4,0.3-0.9,0.3-1.4c0-0.1,0-0.3,0-0.5c-0.6,0.2-1.3,0.3-2,0.5
			c-0.1,1.1-0.2,1.7-0.2,1.8h0.1c0.5,0,1.1-0.1,1.7-0.2C33,17.5,33,17.4,33,17.3z M33.5,14.8c0.6-0.1,1-0.2,1.4-0.3
			c0.1-0.1,0.2-0.3,0.3-0.4c0.4-0.6,0.7-1.1,0.8-1.4c-0.3,0-1.7,0.3-4.2,0.8c-0.1,0.5-0.1,1.1-0.2,1.7v0.1
			C32,15.2,32.7,15,33.5,14.8z M33.4,12.4c0.2-0.4,0.4-0.9,0.4-1.4c0-0.2,0-0.5,0-0.8c-0.6,0.1-1.2,0.2-1.9,0.4c-0.1,0-0.1,0-0.1,0
			c0,0.1,0,0.2,0,0.3c0,0.5,0,1-0.1,1.6c0,0.2,0,0.3,0,0.5c0.4-0.1,1-0.2,1.6-0.4C33.3,12.5,33.4,12.5,33.4,12.4z M32.1,21
			c0.1,0.6,0.3,1.1,0.4,1.6c0.2,0.5,0.3,0.9,0.4,1.3c0.1,0,0.2,0,0.2,0c0.6-0.1,1.2-0.2,1.8-0.2c0-0.1,0.1-0.2,0.1-0.3
			c0-0.4,0.1-0.8,0.1-1c0-0.4-0.1-0.9-0.3-1.4c-0.1-0.2-0.1-0.4-0.2-0.6c0,0,0,0,0-0.1C33.8,20.4,32.9,20.7,32.1,21z M35.4,20
			c0.2,0.3,0.3,0.7,0.4,1.1c0.1,0.4,0.1,0.7,0.1,0.9c0,0.4,0,0.7-0.1,1c-0.1,0.2-0.1,0.4-0.2,0.6c0.2,0,0.4,0,0.7,0
			c0.3,0,0.6-0.1,0.9-0.1c0.3-0.4,0.5-0.8,0.7-1.1c0.1-0.2,0.1-0.4,0.2-0.6c0-0.2,0.1-0.3,0.1-0.5c0-0.6-0.1-1.1-0.4-1.6
			c0,0-0.1-0.1-0.1-0.2C37,19.7,36.2,19.9,35.4,20z M41.8,21.4c0.1-0.4,0.2-0.8,0.2-1.1c-0.2-0.7-0.6-1-1.2-1c-0.7,0-1.3,0.1-2,0.1
			c0.2,0.3,0.3,0.8,0.3,1.3c0,0.3,0,0.6-0.1,0.9c-0.1,0.2-0.2,0.5-0.2,0.7c-0.2,0.4-0.4,0.8-0.6,1.1c0.8,0,1.4,0,2.1,0h0.2
			C41,22.8,41.5,22.1,41.8,21.4z M44,11.2c0,0.1,0,0.2-0.1,0.3c-0.2,0.2-0.5,0.4-0.9,0.7c-1.4,0.8-2.8,1.2-4.2,1.3
			c-0.3,0-0.5-0.2-0.6-0.4c0-0.1,0-0.2,0.1-0.3c0.4-0.5,0.8-1.1,1.2-1.9c0.2-0.4,0.3-0.8,0.4-1.1c0.1-0.2,0.3-0.3,0.5-0.3
			c0.2,0.1,0.4,0.2,0.4,0.6c-0.1,0.6-0.5,1.3-1.2,2.3c1.4-0.2,2.7-0.7,3.8-1.4c0.1,0,0.2-0.1,0.3-0.1C43.8,10.8,44,10.9,44,11.2z
			 M40.1,16.6c-0.7,0.2-1.1,0.4-1.1,0.4h-0.1c-0.1,0-0.2-0.1-0.2-0.2c-0.1-0.1-0.1-0.2-0.1-0.3c0-0.1,0.1-0.3,0.2-0.4
			c0.6-0.3,1.8-0.7,3.6-1.2c0.4-0.1,0.7-0.1,0.9-0.1c0.1,0,0.2,0.1,0.3,0.2c0.1,0.1,0.1,0.2,0.1,0.3c0,0.1-0.1,0.2-0.3,0.3
			C42.5,15.8,41.4,16.1,40.1,16.6z"/>
		<path class="st0" d="M55.6,7.4c1.2-0.4,2.1-0.6,2.7-0.6c0.3,0,0.4,0.2,0.4,0.7c0,0.3-0.2,0.7-0.6,1.2c-0.8,1-1.9,2.1-3.5,3.3
			c1.3-0.6,2.7-1,4.1-1.5c0.5-0.2,0.8-0.2,1-0.2c0.2,0,0.3,0.1,0.4,0.1c0.2,0.1,0.2,0.3,0.3,0.4c0,0.4,0,0.9-0.1,1.3
			c-0.3,1.3-0.8,2.3-1.8,3c-0.4,0.4-0.8,0.8-1.5,1.2c-1.3,0.8-2.6,1.6-4,2.3c-0.2,0.1-0.3,0.2-0.5,0.2c0,1.6,0.4,2.7,1,3.4
			c1.1,1,3.2,1.6,6.3,1.7c0.7,0,1.3-0.1,1.8-0.2c1.4-0.4,2.1-1.5,2.1-3.4c0-0.7-0.1-1.3-0.4-2c0-0.4,0.1-0.6,0.5-0.6
			c0.2,0,0.4,0.2,0.5,0.5c0.2,0.3,0.3,0.8,0.5,1.5c0,0.4,0.1,0.9,0.1,1.5c-0.1,1.2-0.6,2.2-1.6,2.9c-0.9,0.5-2.1,0.8-3.6,0.8
			c-1.5,0-2.7-0.2-3.8-0.4c-1.2-0.4-2.1-0.8-2.7-1.3c-1.1-0.9-1.6-2.5-1.6-4.7c0-0.6,0-1.3,0.1-2.1c0-0.7,0.1-1.3,0.2-1.9
			c-0.1,0.1-0.3,0.1-0.4,0.2c-0.2,0.1-0.3,0.1-0.5,0.1c-0.2,0-0.3-0.1-0.3-0.2c-0.1-0.1-0.1-0.2-0.1-0.3c0-0.2,0.1-0.4,0.3-0.5
			c0.5-0.3,1-0.5,1.5-0.8v0c0-0.1,0-0.2,0.1-0.3c1.4-0.9,3-2.5,5-4.8c-2.2,0.8-3.8,1.3-4.7,1.3c-0.4,0-0.6-0.2-0.6-0.7
			c0-0.2,0.1-0.4,0.4-0.8c0.2-0.2,0.5-0.4,0.7-0.5c0.7-0.6,1.1-1.3,1.4-2.2c0.1-0.2,0.3-0.2,0.5-0.2c0.3,0,0.5,0.2,0.5,0.5
			c0,0.7-0.4,1.4-1.3,2.3c-0.1,0.1-0.1,0.1-0.1,0.1C54.7,7.6,55.1,7.5,55.6,7.4z M52.7,17.7c1-0.5,2-1,2.8-1.6c0-0.1,0-0.2,0-0.3v-1
			c0-0.6-0.1-1.2-0.3-1.9c-0.8,0.3-1.6,0.7-2.5,1.1c0,0.1,0.1,0.2,0.1,0.3C52.7,15.6,52.7,16.7,52.7,17.7
			C52.7,17.7,52.7,17.7,52.7,17.7z M56.1,12.7c0.1,0.5,0.1,0.9,0.2,1.4c0,0.3,0.1,0.7,0.1,1.1c0,0.2,0,0.3,0,0.4
			c0.4-0.2,0.7-0.5,1.1-0.8c0.3-0.3,0.5-0.4,0.7-0.5c0.8-0.8,1.2-1.8,1.2-2.9c-0.8,0.2-1.9,0.6-3.3,1.2
			C56.1,12.6,56.1,12.7,56.1,12.7z"/>
		<path class="st0" d="M72.5,22.5c0,0.4-0.2,0.6-0.4,0.6c-0.8,0-1.5-0.6-2-1.7c-0.1-0.2-0.2-0.3-0.2-0.5c0-0.3,0.1-0.4,0.4-0.4
			c0.5,0.3,1,0.8,1.5,1.4c0-0.9,0-1.9,0-3c0-1.8,0-3.6-0.1-5.3c-0.1,0.4-0.3,0.9-0.5,1.4c-0.3,0.8-0.7,1.5-1.1,2.2
			c-0.4,0.7-0.8,1.2-1.2,1.7c-0.1,0.1-0.2,0.1-0.2,0.1c-0.1,0-0.2,0.1-0.3,0.1c-0.2,0-0.3-0.1-0.3-0.3c0-0.1,0.1-0.3,0.2-0.4
			c0.5-0.7,1-1.6,1.5-2.5c0.4-0.8,0.7-1.7,1-2.6c0.2-0.7,0.4-1.4,0.5-2.2c0,0,0-0.1,0.1-0.1c-0.3,0.1-0.6,0.2-0.9,0.3
			c-0.2,0-0.3,0.1-0.4,0.1c-0.2,0-0.4,0-0.5,0c-0.3,0-0.4-0.2-0.5-0.6c0-0.2,0.1-0.3,0.4-0.4c0.2-0.1,0.4-0.1,0.6-0.2
			c0.5-0.1,1-0.2,1.5-0.4c0-0.1,0-0.3,0-0.4c0-0.9-0.1-1.8-0.3-2.6c0-0.4-0.1-0.6-0.1-0.8c0-0.3,0.2-0.5,0.6-0.5
			c0.2,0,0.4,0.2,0.5,0.5c0,0.4,0.1,0.7,0.2,1.1c0,0.7,0.1,1.5,0.1,2.4c0.7-0.2,1.3-0.4,1.7-0.6c0.1,0,0.2,0.1,0.3,0.1
			c0,0,0,0.1,0,0.1c0,0.1-0.1,0.3-0.2,0.4c-0.3,0.3-0.9,0.6-1.8,0.9c0,0.7,0,1.4,0,2.1c0.1,0,0.2,0,0.2,0.1c0.6,0.4,1.4,1.3,2.5,2.9
			c0.3,0.4,0.5,0.8,0.5,1.1c0,0.3-0.1,0.4-0.3,0.4c-0.1,0-0.2-0.1-0.4-0.2c-0.3-0.3-0.6-0.7-0.9-1.1c-0.5-0.6-1.1-1.2-1.6-1.8
			C72.6,18.4,72.5,21.1,72.5,22.5z M74.8,7.7c0-0.3,0.1-0.5,0.5-0.5c0.5,0,1.9-0.4,4.2-1.3C79.7,6,79.9,6,80,6.2c0,0.1,0,0.2,0,0.3
			c-0.1,0.1-0.2,0.2-0.3,0.3c-0.4,0.3-0.8,0.6-1.4,0.8c-0.5,0.2-1,0.4-1.5,0.5c0.1,0.1,0.1,0.1,0.2,0.2c0.1,0.1,0.1,0.3,0.1,0.5
			c0,0.3,0,0.6,0,0.9c0,0.8,0,1.6-0.1,2.4c-0.1,1.2-0.2,2-0.2,2.2c0,0.3-0.1,0.6-0.1,0.8c0.8-0.4,1.4-1,2-1.7c0-0.1,0.1-0.1,0.1-0.2
			c0-0.4,0-0.9,0.1-1.3v-0.4c0-0.3,0.2-0.4,0.5-0.4c0.3,0,0.4,0.1,0.5,0.4v0.4c0,2.1-0.3,4.2-0.8,6.4c-0.4,1.3-0.8,2.7-1.4,4.1
			c-0.2,0.5-0.4,0.8-0.5,1.1c-0.2,0.1-0.3,0.2-0.4,0.2c-0.1,0-0.2-0.1-0.2-0.3c0-0.1,0.1-0.3,0.2-0.5c0.2-0.5,0.3-1,0.5-1.6
			c0.4-1.1,0.8-2.4,1.1-4c0.2-0.8,0.3-1.6,0.4-2.5c-0.4,0.5-0.9,0.9-1.4,1.3c-0.3,0.2-0.6,0.3-0.8,0.3c-0.4,0-0.6-0.2-0.6-0.6
			c0-0.1,0-0.3,0-0.5c0-0.5,0.1-1.5,0.2-2.8c0.1-0.9,0.1-1.8,0.1-2.6c0-0.4,0-0.7-0.1-1C76,8.7,76,8.6,76,8.5c0-0.1,0-0.2,0.1-0.2
			c-0.3,0.1-0.5,0.1-0.8,0.1C75,8.4,74.8,8.2,74.8,7.7z M82.6,15.7c0,0.3,0,0.5,0,0.7c0,0.9,0,1.9,0,3.2c0.1,1.2,0.1,2.2,0.1,3
			c0,0.8-0.1,1.4-0.4,1.9c-0.1,0.2-0.3,0.3-0.5,0.3c-0.3,0-0.5-0.2-0.5-0.5c0.3-0.5,0.5-1,0.5-1.5c0-1.3,0-2.6-0.1-4
			c-0.1-1.7-0.1-3.3-0.1-4.9c0-0.9,0-2,0-3c0-0.2,0.1-0.4,0.3-0.5h0.3c0.2,0.1,0.4,0.3,0.4,0.5c0,0.5,0,1.3,0,2.4c0,0.4,0,0.8,0,1.3
			c0.4-0.5,0.7-1,1-1.4c0.9-1.6,1.6-3.5,1.8-5.5c-1.4,0.5-2.8,1-4.2,1.6c-0.3,0.1-0.5,0.2-0.6,0.2c-0.3-0.1-0.4-0.3-0.4-0.5
			c0-0.1,0.1-0.2,0.2-0.3c0.2-0.2,0.8-0.4,1.6-0.7c1.9-0.7,3.1-1,3.7-1c0.4,0,0.7,0.3,0.7,0.8c0,0.3-0.1,0.7-0.2,1.3
			c-0.2,1.1-0.5,2.1-0.9,3c-0.6,1.3-1.3,2.5-2.2,3.6C82.9,15.7,82.7,15.7,82.6,15.7z"/>
		<path class="st0" d="M95.7,8.1c1.5-0.2,2.8-0.4,4-0.4c1.6-0.1,3.2-0.3,4.7-0.4c0.3,0,0.7-0.1,1-0.1c0.2,0,0.4,0.1,0.5,0.3
			c0,0.4-0.2,0.7-0.5,0.9c-0.3,0-1.4,0.1-3.3,0.2c-1,0-2,0.1-3.2,0.1c0,2.7,0,5.7,0,9v4.8c0,0.7-0.1,1.2-0.2,1.6
			c-0.2,0.4-0.4,0.6-0.7,0.6c-0.6,0-1.3-0.2-1.9-0.5c-0.8-0.4-1.3-0.9-1.6-1.4c-0.1-0.1-0.1-0.2-0.1-0.4c0.1-0.2,0.2-0.3,0.4-0.3
			c0.2,0,0.6,0.2,1.2,0.7c0.8,0.5,1.4,0.8,1.7,0.8c0.2-0.1,0.2-0.5,0.2-1.1v-4.2c0-1.9,0-4.8-0.1-8.5c0-0.6,0-0.9,0-1.2
			c-1,0.1-2.3,0.4-3.8,0.8c-0.6,0.2-1.7,0.6-3.4,1.1c-0.1,0-0.3,0.1-0.4,0.1c-0.3,0-0.5-0.2-0.5-0.5c0-0.2,0.1-0.4,0.4-0.6
			C91.3,9.1,93.2,8.6,95.7,8.1z"/>
	</g>
	<g>
		<g>
			<g>
				<path class="st1" d="M11.1,13.1c-1-0.4-1.9-0.8-2.9-1.2c-0.7-0.3-1.4-0.6-2.1-1c-0.6-0.3-1.1-0.5-1.7-0.8
					C3.8,9.9,3.4,9.5,3.3,9.1C3.2,8.6,3.3,8.2,3.7,7.7c1.1-1.3,2.3-2.4,3.5-3.2c0.1-0.1,0.3-0.1,0.6-0.1c0.7,0,1.3,0.2,1.4,0.4
					c1,2.1,1.8,4.4,2.7,6.5c0.3,0.7,0.5,1.3,0.8,2l-0.4,0.3L11.1,13.1z"/>
			</g>
			<g>
				<path class="st1" d="M2.9,18.3c-1,0-1.3-0.7-1.5-3.1c0-0.4,0-0.7,0-1C1.6,11.8,2,11,3,11c0.5,0,1.3,0.2,2.5,0.8
					c2,0.9,4,1.8,6,2.8c0,0,0.1,0.1,0.2,0.2c0.1,0.1,0.1,0.2,0.2,0.3l-1,0.4c-0.8,0.3-1.6,0.7-2.3,1c-0.7,0.3-1.4,0.5-2.1,0.8
					l-1.3,0.5C4.1,18.1,3.4,18.3,2.9,18.3L2.9,18.3z"/>
			</g>
			<g>
				<path class="st1" d="M13.7,27.2c-0.4,0-0.8,0-1.2-0.1c-1.5-0.1-2.2-0.4-2.5-0.9c-0.3-0.5-0.2-1.3,0.5-2.7
					c0.3-0.7,0.6-1.4,0.9-2.1c0.5-1,0.9-2.1,1.4-3.1c0.2-0.4,0.4-0.7,0.6-1.1c0.1-0.1,0.2-0.3,0.2-0.4l0.4,0l0.8,2
					c0.6,1.5,1.2,3,1.7,4.5c0.7,1.7,0.8,2.7,0.4,3.2c-0.4,0.5-1.2,0.7-3.1,0.7L13.7,27.2z"/>
			</g>
			<g>
				<path class="st1" d="M13.5,12.9c-0.3-0.7-0.5-1.3-0.8-2c-0.8-2.2-1.7-4.4-2.4-6.7c0-0.1,0.1-0.4,0.3-0.7
					c0.3-0.4,0.6-0.6,0.7-0.7c0.8-0.1,1.6-0.1,2.3-0.1c1.1,0,2.1,0.1,3.1,0.2c0.1,0,0.5,0.3,0.7,0.7c0.2,0.4,0.3,0.6,0.2,0.7
					C16.9,6.6,15.9,8.8,15,11c-0.3,0.6-0.6,1.3-0.8,1.9L13.5,12.9z"/>
			</g>
			<g>
				<path class="st1" d="M24.5,18.9C22.2,18,19.9,17,17.6,16l-1.8-0.8l0.1-0.6l2-0.8c2.2-0.8,4.4-1.7,6.6-2.4c0,0,0,0,0,0
					c0.5,0,1.3,0.6,1.3,0.8c0.1,1.8,0.1,3.8-0.1,5.8C25.6,18.3,24.8,18.9,24.5,18.9L24.5,18.9z"/>
			</g>
			<g>
				<path class="st1" d="M7.3,25.2c-0.2,0-0.3,0-0.3-0.1c-1.3-1.1-2.6-2.5-3.8-3.9c-0.1-0.1-0.1-0.5,0-1c0.1-0.4,0.3-0.6,0.3-0.7
					c2.2-1,4.5-1.9,6.7-2.7c0.7-0.3,1.3-0.5,2-0.8l0.3,0.4c-0.3,0.7-0.6,1.3-0.9,2c-0.9,2.1-1.9,4.2-2.9,6.2
					C8.7,24.9,7.9,25.2,7.3,25.2L7.3,25.2z"/>
			</g>
			<g>
				<path class="st1" d="M19.7,25.4c-0.6,0-1.2-0.2-1.3-0.3c-1-2.1-1.8-4.4-2.7-6.5c-0.3-0.7-0.5-1.3-0.8-2l0.3-0.3l0.9,0.4
					c0.8,0.3,1.6,0.6,2.4,1c1.5,0.6,3,1.3,4.4,2c0.7,0.3,1.1,0.7,1.2,1.2c0.1,0.4-0.1,0.9-0.6,1.5c-1.1,1.3-2.2,2.3-3.4,3.1
					C20.3,25.4,20,25.4,19.7,25.4L19.7,25.4z"/>
			</g>
		</g>
	</g>
</g>
</svg>
